<svg width="32" height="32" viewBox="0 0 32 32" fill="none" xmlns="http://www.w3.org/2000/svg">
<g clip-path="url(#clip0_5790_25641)">
<path d="M16 0C24.8366 0 32 7.16344 32 16C32 24.8366 24.8366 32 16 32C7.16344 32 0 24.8366 0 16C0 7.16344 7.16344 0 16 0ZM17.2266 9.7373C16.9357 9.43944 16.46 9.43944 16.166 9.7373L15.4717 10.4404C15.1714 10.7415 15.1779 11.2327 15.4844 11.5273L19.2529 15.165H10.2637C9.84792 15.1653 9.51367 15.5045 9.51367 15.9258V16.9395C9.51368 17.3607 9.84793 17.6999 10.2637 17.7002H19.2529L15.4844 21.3379C15.181 21.6326 15.1746 22.1238 15.4717 22.4248L16.166 23.1279C16.4569 23.4257 16.9326 23.4258 17.2266 23.1279L23.3057 16.9678C23.5997 16.6731 23.5997 16.1914 23.3057 15.8936L17.2266 9.7373Z" fill="#FF9966"/>
</g>
<defs>
<clipPath id="clip0_5790_25641">
<rect width="32" height="32" fill="white"/>
</clipPath>
</defs>
</svg>
