<svg width="32" height="32" viewBox="0 0 32 32" fill="none" xmlns="http://www.w3.org/2000/svg">
<g clip-path="url(#clip0_5790_25640)">
<path d="M16 32C7.16344 32 6.26248e-07 24.8366 1.39876e-06 16C2.17128e-06 7.16344 7.16345 -2.17128e-06 16 -1.39876e-06C24.8366 -6.26248e-07 32 7.16344 32 16C32 24.8366 24.8366 32 16 32ZM14.7734 22.2627C15.0643 22.5606 15.54 22.5606 15.834 22.2627L16.5283 21.5596C16.8286 21.2585 16.8221 20.7673 16.5156 20.4727L12.7471 16.835L21.7363 16.835C22.1521 16.8347 22.4863 16.4955 22.4863 16.0742L22.4863 15.0605C22.4863 14.6393 22.1521 14.3001 21.7363 14.2998L12.7471 14.2998L16.5156 10.6621C16.819 10.3674 16.8254 9.87622 16.5283 9.57519L15.834 8.87207C15.5431 8.57427 15.0674 8.57423 14.7734 8.87207L8.69434 15.0322C8.40034 15.3269 8.40034 15.8086 8.69434 16.1064L14.7734 22.2627Z" fill="#FF9966"/>
</g>
<defs>
<clipPath id="clip0_5790_25640">
<rect width="32" height="32" fill="white"/>
</clipPath>
</defs>
</svg>
