<svg width="250" height="250" viewBox="0 0 250 250" fill="none" xmlns="http://www.w3.org/2000/svg">
<g clip-path="url(#clip0_6049_19670)">
<path d="M125 0C194.029 0 250 55.971 250 125C250 194.029 194.029 250 125 250C55.971 250 0 194.029 0 125C2.06263e-06 55.971 55.971 2.06209e-06 125 0ZM125 21.2051C67.6897 21.2051 21.2051 67.6897 21.2051 125C21.2051 182.31 67.6897 228.795 125 228.795C182.31 228.795 228.795 182.31 228.795 125C228.795 67.6897 182.31 21.2051 125 21.2051ZM177.176 80.6279C178.989 80.6281 180.049 82.6922 178.961 84.1709L120.2 165.645C119.379 166.791 118.296 167.725 117.042 168.369C115.788 169.013 114.397 169.35 112.987 169.35C111.577 169.35 110.188 169.013 108.934 168.369C107.679 167.725 106.596 166.791 105.774 165.645L71.0088 117.43C69.9489 115.951 71.0098 113.887 72.8232 113.887H85.9092C88.7829 113.887 91.4617 115.282 93.1357 117.598L113.001 145.164L156.863 84.3379C158.537 81.9944 161.244 80.6279 164.09 80.6279H177.176Z" fill="#00D9A1"/>
</g>
<defs>
<clipPath id="clip0_6049_19670">
<rect width="250" height="250" fill="white"/>
</clipPath>
</defs>
</svg>
