<svg width="16" height="16" viewBox="0 0 16 16" fill="none" xmlns="http://www.w3.org/2000/svg">
<g clip-path="url(#clip0_5788_23548)">
<path d="M8 0C12.4179 0 16 3.58214 16 8C16 12.4179 12.4179 16 8 16C3.58214 16 0 12.4179 0 8C1.93324e-07 3.58214 3.58214 1.93318e-07 8 0ZM8 1.35742C4.33214 1.35742 1.35742 4.33214 1.35742 8C1.35742 11.6679 4.33214 14.6426 8 14.6426C11.6679 14.6426 14.6426 11.6679 14.6426 8C14.6426 4.33214 11.6679 1.35742 8 1.35742ZM11.3389 5.16016C11.4549 5.16016 11.5228 5.29208 11.4531 5.38672L7.69238 10.6016C7.63986 10.6747 7.57036 10.7342 7.49023 10.7754C7.4101 10.8165 7.32151 10.8379 7.23145 10.8379C7.1412 10.8379 7.05196 10.8166 6.97168 10.7754C6.89152 10.7342 6.82205 10.6748 6.76953 10.6016L4.54492 7.51562C4.47706 7.42098 4.54506 7.28906 4.66113 7.28906H5.49805C5.68198 7.28906 5.85379 7.37815 5.96094 7.52637L7.23242 9.29004L10.0391 5.39746C10.1462 5.24749 10.3198 5.16016 10.502 5.16016H11.3389Z" fill="#333333"/>
</g>
<defs>
<clipPath id="clip0_5788_23548">
<rect width="16" height="16" fill="white"/>
</clipPath>
</defs>
</svg>
