<svg width="24" height="24" viewBox="0 0 24 24" fill="none" xmlns="http://www.w3.org/2000/svg">
<g id="circles logo-icon-color">
<path id="Vector" d="M14.8843 22.1084C14.8843 22.6732 14.4267 23.1359 13.8659 23.0841C12.757 22.9817 11.6677 22.7124 10.6353 22.2835C9.28823 21.724 8.06427 20.9039 7.03325 19.87C6.00223 18.8361 5.18438 17.6087 4.62641 16.2579C4.06845 14.9071 3.78125 13.4593 3.78125 11.9972C3.78125 10.535 4.06845 9.08723 4.62641 7.73639C5.18438 6.38559 6.00223 5.15821 7.03325 4.12432C8.06427 3.09045 9.28823 2.27033 10.6353 1.7108C11.6677 1.28197 12.757 1.01264 13.8659 0.910216C14.4267 0.858412 14.8843 1.32113 14.8843 1.88591V6.67076C11.9507 6.67076 9.5726 9.05548 9.5726 11.9972C9.5726 14.9389 11.9506 17.3236 14.8841 17.3236V6.67079C17.8177 6.67079 20.1958 9.05548 20.1958 11.9972C20.1958 14.9389 17.8178 17.3236 14.8843 17.3236V22.1084Z" fill="#38318B"/>
<path id="Vector_2" d="M14.8712 17.3191L14.8711 6.67188C17.8113 6.67188 20.1947 9.05537 20.1947 11.9955C20.1947 14.9357 17.8113 17.3191 14.8712 17.3191Z" fill="#DF6552"/>
</g>
</svg>
