<svg width="24" height="25" viewBox="0 0 24 25" fill="none" xmlns="http://www.w3.org/2000/svg">
<g id="Icons/connect" clip-path="url(#clip0_5785_18006)">
<path id="Vector" d="M18 2C18 1.60218 17.842 1.22064 17.5607 0.93934C17.2794 0.658035 16.8978 0.5 16.5 0.5C16.1022 0.5 15.7206 0.658035 15.4393 0.93934C15.158 1.22064 15 1.60218 15 2V6.5H18V2ZM20.25 8H3.75C3.55109 8 3.36032 8.07902 3.21967 8.21967C3.07902 8.36032 3 8.55109 3 8.75V10.25C3 10.4489 3.07902 10.6397 3.21967 10.7803C3.36032 10.921 3.55109 11 3.75 11H4.5V12.5C4.50026 14.2288 5.09752 15.9045 6.19078 17.2438C7.28404 18.583 8.80624 19.5036 10.5 19.85V24.5H13.5V19.85C15.1938 19.5036 16.716 18.583 17.8092 17.2438C18.9025 15.9045 19.4997 14.2288 19.5 12.5V11H20.25C20.4489 11 20.6397 10.921 20.7803 10.7803C20.921 10.6397 21 10.4489 21 10.25V8.75C21 8.55109 20.921 8.36032 20.7803 8.21967C20.6397 8.07902 20.4489 8 20.25 8ZM9 2C9 1.60218 8.84196 1.22064 8.56066 0.93934C8.27936 0.658035 7.89782 0.5 7.5 0.5C7.10218 0.5 6.72064 0.658035 6.43934 0.93934C6.15804 1.22064 6 1.60218 6 2V6.5H9V2Z" fill="#FF9966"/>
</g>
<defs>
<clipPath id="clip0_5785_18006">
<rect width="24" height="24" fill="white" transform="translate(0 0.5)"/>
</clipPath>
</defs>
</svg>
