<svg xmlns="http://www.w3.org/2000/svg" width="16" height="17" viewBox="0 0 16 17" fill="none">
<g clip-path="url(#clip0_6211_20602)">
<path d="M8 0.130859C12.4179 0.130859 16 3.713 16 8.13086C16 12.5487 12.4179 16.1309 8 16.1309C3.58214 16.1309 0 12.5487 0 8.13086C1.93324e-07 3.713 3.58214 0.13086 8 0.130859ZM8 1.48828C4.33214 1.48828 1.35742 4.463 1.35742 8.13086C1.35742 11.7987 4.33214 14.7734 8 14.7734C11.6679 14.7734 14.6426 11.7987 14.6426 8.13086C14.6426 4.463 11.6679 1.48828 8 1.48828ZM10.9531 5.16406C11.0317 5.16406 11.0957 5.22811 11.0957 5.30664C11.0957 5.34043 11.0857 5.37444 11.0645 5.39941L8.74121 8.16699L11.0605 10.9336C11.0819 10.9604 11.0947 10.9925 11.0947 11.0264C11.0947 11.1067 11.0297 11.1689 10.9512 11.1689L9.77344 11.1641L8 9.0498L6.22656 11.166L5.0459 11.1709C4.96751 11.1707 4.90341 11.1067 4.90332 11.0283C4.9037 10.9944 4.91593 10.9617 4.9375 10.9355L7.26074 8.16895L4.9375 5.40137C4.91609 5.3746 4.90334 5.34249 4.90332 5.30859C4.90332 5.22833 4.96745 5.16616 5.0459 5.16602L6.22656 5.1709L8 7.28516L9.77441 5.16895L10.9531 5.16406Z" fill="#F60C6E"/>
</g>
<defs>
<clipPath id="clip0_6211_20602">
<rect width="16" height="16" fill="white" transform="translate(0 0.130859)"/>
</clipPath>
</defs>
</svg>