<svg width="16" height="16" viewBox="0 0 16 16" fill="none" xmlns="http://www.w3.org/2000/svg">
<g clip-path="url(#clip0_5799_18334)">
<path d="M13 0C14.6569 0 16 1.34315 16 3V13C16 14.6569 14.6569 16 13 16H3L2.8457 15.9961C1.26055 15.9158 0 14.6051 0 13V3C0 1.34315 1.34315 0 3 0H13ZM3 1C1.89543 1 1 1.89543 1 3V13C1 14.1046 1.89543 15 3 15H13C14.1046 15 15 14.1046 15 13V3C15 1.89543 14.1046 1 13 1H3ZM12.0195 3.33301C12.3803 3.33126 12.6707 3.62163 12.667 3.98047L12.626 11.4463C12.624 11.8071 12.3306 12.1003 11.9717 12.1006L11.1182 12.1055C10.7534 12.1073 10.461 11.8071 10.4707 11.4424L10.6055 6.92383L5.05566 12.4727C4.79885 12.7294 4.38783 12.7315 4.13379 12.4775L3.52246 11.8662C3.26864 11.6123 3.27083 11.2021 3.52734 10.9453L9.07715 5.39648L4.55762 5.53027C4.19074 5.54188 3.89061 5.24957 3.89453 4.88281L3.89941 4.03027C3.90151 3.66949 4.19479 3.37618 4.55371 3.37598L12.0195 3.33301Z" fill="#FF9966"/>
</g>
<defs>
<clipPath id="clip0_5799_18334">
<rect width="16" height="16" fill="white"/>
</clipPath>
</defs>
</svg>
