<svg xmlns="http://www.w3.org/2000/svg" width="16" height="17" viewBox="0 0 16 17" fill="none">
  <g clip-path="url(#clip0_6107_20671)">
    <path d="M2.6 16.5L13.24 16.5C13.6597 16.5 14 16.1642 14 15.75L14 15.25C14 14.8358 13.6597 14.5 13.24 14.5C13.24 11.6573 11.6245 9.25831 9.41334 8.5C11.6245 7.74169 13.24 5.34266 13.24 2.5C13.6597 2.5 14 2.16422 14 1.75L14 1.25C14 0.835781 13.6597 0.5 13.24 0.5L2.6 0.499999C2.18026 0.499999 1.84 0.83578 1.84 1.25L1.84 1.75C1.84 2.16422 2.18026 2.5 2.6 2.5C2.6 5.34266 4.21551 7.74169 6.42666 8.5C4.21551 9.25831 2.6 11.6573 2.6 14.5C2.18026 14.5 1.84 14.8358 1.84 15.25L1.84 15.75C1.84 16.1642 2.18026 16.5 2.6 16.5ZM4.62667 2.5L11.2133 2.5C11.2133 4.92056 9.75021 7 7.92 7C6.09011 7 4.62667 4.92134 4.62667 2.5Z" fill="#BE75FF"/>
  </g>
  <defs>
    <clipPath id="clip0_6107_20671">
      <rect width="16" height="16" fill="white" transform="translate(0 0.5)"/>
    </clipPath>
  </defs>
</svg>