<svg xmlns="http://www.w3.org/2000/svg" width="16" height="17" viewBox="0 0 16 17" fill="none">
  <path d="M8.03516 1.5C8.6145 2.28074 8.9043 2.95768 8.9043 3.53027C8.90426 3.9573 8.80714 4.20245 8.65137 4.3418L12.9688 5.63086C13.087 5.52892 13.2415 5.4668 13.4102 5.4668C13.7826 5.4669 14.0849 5.76757 14.085 6.13867C14.085 6.40843 13.9245 6.64009 13.6943 6.74707L15.2041 11.0938C15.6825 11.1699 15.9986 11.2813 15.999 11.4297C15.999 12.0394 14.8056 12.5341 13.333 12.5342C11.8603 12.5342 10.666 12.0394 10.666 11.4297C10.6664 11.2718 11.0244 11.1552 11.5547 11.0791L13.0703 6.71875C12.9314 6.63785 12.8241 6.50866 12.7715 6.35449C12.7205 6.14319 12.6019 6.00957 12.416 5.9541C11.913 5.80412 11.4331 5.95539 10.6299 5.71582C10.1426 5.57041 9.41116 5.35234 8.43652 5.06152V9.53125C8.60723 9.65314 8.71869 9.85196 8.71875 10.0771C8.71875 10.2264 8.66957 10.3641 8.58691 10.4756C8.80963 10.6408 8.9541 10.9052 8.9541 11.2031C8.95392 11.5634 8.7423 11.8735 8.43652 12.0195V12.9541C9.43225 13.0061 10.1904 13.2733 10.1904 13.5967C10.1904 13.602 10.1879 13.607 10.1875 13.6123C11.7966 13.7508 12.9082 14.0468 12.9082 14.3887L12.916 14.8652C12.916 15.34 10.7774 15.7207 8.13477 15.7207C5.49194 15.7207 3.35352 15.3322 3.35352 14.8574L3.33691 14.3887C3.33691 14.0523 4.41271 13.7603 5.97949 13.6191C5.97865 13.6116 5.97658 13.6043 5.97656 13.5967C5.97656 13.2785 6.71122 13.014 7.68359 12.9561V12.0352C7.36078 11.896 7.13395 11.5758 7.13379 11.2031C7.13379 10.9052 7.27918 10.6408 7.50195 10.4756C7.41927 10.364 7.36914 10.2265 7.36914 10.0771C7.36922 9.83843 7.49529 9.62892 7.68359 9.50977V4.83691C6.57217 4.50525 5.73842 4.2557 5.18262 4.08984C4.8253 3.98321 4.11181 3.49781 3.6416 3.35742C3.46754 3.30548 3.28874 3.34346 3.10547 3.4707C3.07019 3.49942 3.0319 3.52467 2.99121 3.5459L4.49707 7.88086C4.99842 7.95703 5.33259 8.07201 5.33301 8.22461C5.33301 8.83431 4.13959 9.32903 2.66699 9.3291C1.19424 9.3291 0 8.83436 0 8.22461C0.00039978 8.07667 0.315016 7.96576 0.791016 7.88965L2.3125 3.51367C2.12709 3.39392 2.00393 3.18672 2.00391 2.9502C2.00391 2.57902 2.30612 2.27832 2.67871 2.27832C2.98198 2.27842 3.23835 2.47759 3.32324 2.75195L7.19922 3.90918C7.17798 3.8022 7.16603 3.67698 7.16602 3.53027C7.16602 2.95767 7.45579 2.28076 8.03516 1.5ZM11.71 11.0605C12.6792 10.9425 14.1095 10.9464 15.0479 11.0723L13.5605 6.79297C13.5121 6.80398 13.462 6.81054 13.4102 6.81055C13.3369 6.81055 13.2663 6.79887 13.2002 6.77734L11.71 11.0605ZM0.948242 7.86719C1.90364 7.73858 3.37129 7.73748 4.3418 7.8623L2.85938 3.59668C2.80183 3.6126 2.74137 3.62205 2.67871 3.62207C2.59446 3.62207 2.51382 3.60621 2.43945 3.57812L0.948242 7.86719Z" fill="#BE75FF"/>
</svg>