<svg width="250" height="250" viewBox="0 0 250 250" fill="none" xmlns="http://www.w3.org/2000/svg">
<g clip-path="url(#clip0_6049_19690)">
<path d="M125 0C194.029 0 250 55.971 250 125C250 194.029 194.029 250 125 250C55.971 250 0 194.029 0 125C2.06263e-06 55.971 55.971 2.06209e-06 125 0ZM125 21.2051C67.6897 21.2051 21.2051 67.6897 21.2051 125C21.2051 182.31 67.6897 228.795 125 228.795C182.31 228.795 228.795 182.31 228.795 125C228.795 67.6897 182.31 21.2051 125 21.2051ZM176.339 116.071C177.567 116.071 178.571 117.076 178.571 118.304V131.696C178.571 132.924 177.567 133.929 176.339 133.929H73.6611C72.4335 133.929 71.4287 132.924 71.4287 131.696V118.304C71.4287 117.076 72.4335 116.071 73.6611 116.071H176.339Z" fill="#E5E5E5"/>
</g>
<defs>
<clipPath id="clip0_6049_19690">
<rect width="250" height="250" fill="white"/>
</clipPath>
</defs>
</svg>
