<svg width="64" height="64" viewBox="0 0 64 64" fill="none" xmlns="http://www.w3.org/2000/svg">
<g clip-path="url(#clip0_6049_19685)">
<path d="M32 0C49.6714 0 64 14.3286 64 32C64 49.6714 49.6714 64 32 64C14.3286 64 0 49.6714 0 32C7.73324e-07 14.3286 14.3286 7.73277e-07 32 0ZM32 5.42871C17.3286 5.42871 5.42871 17.3286 5.42871 32C5.42871 46.6714 17.3286 58.5713 32 58.5713C46.6714 58.5713 58.5713 46.6714 58.5713 32C58.5713 17.3286 46.6714 5.42871 32 5.42871ZM45.1426 29.7139C45.4569 29.7139 45.7139 29.9718 45.7139 30.2861V33.7139C45.7139 34.0282 45.4569 34.2861 45.1426 34.2861H18.8574C18.5431 34.2861 18.2861 34.0282 18.2861 33.7139V30.2861C18.2861 29.9718 18.5431 29.7139 18.8574 29.7139H45.1426Z" fill="#E5E5E5"/>
</g>
<defs>
<clipPath id="clip0_6049_19685">
<rect width="64" height="64" fill="white"/>
</clipPath>
</defs>
</svg>
