<svg width="16" height="16" viewBox="0 0 16 16" fill="none" xmlns="http://www.w3.org/2000/svg">
  <path d="M1 5.5H12.5875L10.7944 7.29313C10.4038 7.68375 10.4038 8.31656 10.7944 8.70719C10.9875 8.90312 11.2437 9 11.5 9C11.7563 9 12.0119 8.90234 12.2069 8.70703L15.7069 5.20703C16.0975 4.81641 16.0975 4.18359 15.7069 3.79297L12.2069 0.292969C11.8162 -0.0976562 11.1834 -0.0976562 10.7928 0.292969C10.4022 0.683594 10.4022 1.31641 10.7928 1.70703L12.5875 3.5H1C0.447187 3.5 0 3.94719 0 4.5C0 5.05281 0.447187 5.5 1 5.5ZM15 10.5H3.41563L5.20875 8.70687C5.59937 8.31625 5.59937 7.68344 5.20875 7.29281C4.81812 6.90219 4.18531 6.90219 3.79469 7.29281L0.294688 10.7928C-0.0959375 11.1834 -0.0959375 11.8162 0.294688 12.2069L3.79469 15.7069C3.9875 15.9031 4.24375 16 4.5 16C4.75625 16 5.01187 15.9023 5.20687 15.707C5.5975 15.3164 5.5975 14.6836 5.20687 14.293L3.41563 12.5H15C15.5528 12.5 16 12.0528 16 11.5C16 10.9472 15.5531 10.5 15 10.5Z" fill="#FF9966"/>
</svg>
