<svg width="64" height="64" viewBox="0 0 64 64" fill="none" xmlns="http://www.w3.org/2000/svg">
<g clip-path="url(#clip0_6049_19636)">
<path d="M32 0C49.6714 0 64 14.3286 64 32C64 49.6714 49.6714 64 32 64C14.3286 64 0 49.6714 0 32C7.73324e-07 14.3286 14.3286 7.73277e-07 32 0ZM32 5.42871C17.3286 5.42871 5.42871 17.3286 5.42871 32C5.42871 46.6714 17.3286 58.5713 32 58.5713C46.6714 58.5713 58.5713 46.6714 58.5713 32C58.5713 17.3286 46.6714 5.42871 32 5.42871ZM31.999 41.1426C32.9083 41.1426 33.7799 41.5045 34.4229 42.1475C35.0658 42.7904 35.4277 43.662 35.4277 44.5713C35.4277 45.4806 35.0658 46.3531 34.4229 46.9961C33.7799 47.6388 32.9081 48 31.999 48C31.0897 48 30.2172 47.6391 29.5742 46.9961C28.9312 46.3531 28.5703 45.4806 28.5703 44.5713C28.5704 43.6622 28.9315 42.7904 29.5742 42.1475C30.2172 41.5045 31.0897 41.1426 31.999 41.1426ZM33.7129 16C34.0271 16 34.2841 16.2571 34.2842 16.5713V36C34.2842 36.3143 34.0272 36.5713 33.7129 36.5713H30.2842C29.9701 36.5711 29.7129 36.3141 29.7129 36V16.5713C29.713 16.2572 29.9701 16.0002 30.2842 16H33.7129Z" fill="#FFBE66"/>
</g>
<defs>
<clipPath id="clip0_6049_19636">
<rect width="64" height="64" fill="white"/>
</clipPath>
</defs>
</svg>
