<svg width="250" height="250" viewBox="0 0 250 250" fill="none" xmlns="http://www.w3.org/2000/svg">
<g clip-path="url(#clip0_6049_19680)">
<path d="M125 0C194.029 0 250 55.971 250 125C250 194.029 194.029 250 125 250C55.971 250 0 194.029 0 125C2.06263e-06 55.971 55.971 2.06209e-06 125 0ZM125 21.2051C67.6897 21.2051 21.2051 67.6897 21.2051 125C21.2051 182.31 67.6897 228.795 125 228.795C182.31 228.795 228.795 182.31 228.795 125C228.795 67.6897 182.31 21.2051 125 21.2051ZM124.996 160.714C128.548 160.714 131.954 162.125 134.466 164.637C136.977 167.148 138.389 170.555 138.389 174.107C138.389 177.659 136.977 181.066 134.466 183.577C131.954 186.089 128.548 187.5 124.996 187.5C121.444 187.5 118.037 186.089 115.525 183.577C113.014 181.066 111.603 177.659 111.603 174.107C111.603 170.555 113.014 167.148 115.525 164.637C118.037 162.125 121.444 160.714 124.996 160.714ZM131.692 62.5C132.92 62.5002 133.924 63.5048 133.924 64.7324V140.625C133.924 141.853 132.92 142.857 131.692 142.857H118.299C117.071 142.857 116.067 141.853 116.067 140.625V64.7324C116.067 63.5049 117.071 62.5002 118.299 62.5H131.692Z" fill="#FFBE66"/>
</g>
<defs>
<clipPath id="clip0_6049_19680">
<rect width="250" height="250" fill="white"/>
</clipPath>
</defs>
</svg>
