<svg xmlns="http://www.w3.org/2000/svg" width="16" height="17" viewBox="0 0 16 17" fill="none">
<g clip-path="url(#clip0_6211_20786)">
<path d="M8 0.130859C12.4179 0.130859 16 3.713 16 8.13086C16 12.5487 12.4179 16.1309 8 16.1309C3.58214 16.1309 0 12.5487 0 8.13086C1.93324e-07 3.713 3.58214 0.13086 8 0.130859ZM8 1.48828C4.33214 1.48828 1.35742 4.463 1.35742 8.13086C1.35742 11.7987 4.33214 14.7734 8 14.7734C11.6679 14.7734 14.6426 11.7987 14.6426 8.13086C14.6426 4.463 11.6679 1.48828 8 1.48828ZM8 10.417C8.22723 10.4171 8.44479 10.5073 8.60547 10.668C8.76615 10.8286 8.85637 11.0462 8.85645 11.2734C8.85645 11.5008 8.76621 11.7191 8.60547 11.8799C8.44481 12.0404 8.22713 12.1308 8 12.1309C7.77267 12.1309 7.5543 12.0406 7.39355 11.8799C7.23281 11.7191 7.14258 11.5008 7.14258 11.2734C7.14265 11.0463 7.23301 10.8286 7.39355 10.668C7.5543 10.5072 7.77267 10.417 8 10.417ZM8.42871 4.13086C8.507 4.13109 8.57114 4.19513 8.57129 4.27344V9.13086C8.57129 9.20929 8.50709 9.27321 8.42871 9.27344H7.57129C7.49272 9.27344 7.42871 9.20943 7.42871 9.13086V4.27344C7.42886 4.19499 7.49281 4.13086 7.57129 4.13086H8.42871Z" fill="#FF9966"/>
</g>
<defs>
<clipPath id="clip0_6211_20786">
<rect width="16" height="16" fill="white" transform="translate(0 0.130859)"/>
</clipPath>
</defs>
</svg>