<svg width="32" height="33" viewBox="0 0 32 33" fill="none" xmlns="http://www.w3.org/2000/svg">
<path d="M32 16.6309C32 25.4674 24.8366 32.6309 16 32.6309C7.16344 32.6309 0 25.4674 0 16.6309C0 7.7943 7.16344 0.630859 16 0.630859C24.8366 0.630859 32 7.7943 32 16.6309Z" fill="#F7F7F7"/>
<path d="M28.6488 17.4764L21.3742 10.0723L19.4609 24.2756L28.6488 17.4764Z" fill="#656569"/>
<path d="M8.15625 15.811L21.3745 10.0723L19.4613 24.2756L8.15625 15.811Z" fill="url(#paint0_linear_6211_20783)"/>
<path d="M21.3745 10.0719L10.6348 5.39258L8.15625 15.8107L21.3745 10.0719Z" fill="url(#paint1_linear_6211_20783)"/>
<path d="M8.15625 15.8105L8.40938 27.1724L19.4613 24.2751L8.15625 15.8105Z" fill="url(#paint2_linear_6211_20783)"/>
<path d="M21.3745 10.0719L23.405 5.96464L10.6348 5.39258L21.3745 10.0719Z" fill="#757578"/>
<path d="M23.4055 5.96484L28.6496 17.4762L21.375 10.0721L23.4055 5.96484Z" fill="#6C6D70"/>
<path d="M28.6488 17.4766L21.307 27.9568L19.4609 24.2758L28.6488 17.4766Z" fill="#6C6D70"/>
<path d="M21.3061 27.9564L8.4082 27.1727L19.4601 24.2754L21.3061 27.9564Z" fill="#55565A"/>
<path d="M10.6346 5.39258L3.19922 14.7144L8.15608 15.8107L10.6346 5.39258Z" fill="#55565A"/>
<path d="M3.19922 14.7148L8.40921 27.173L8.15608 15.8111L3.19922 14.7148Z" fill="#656569"/>
<path opacity="0.7" d="M20.0215 12.0273L18.6816 22.2097L10.7852 16.0793L20.0215 12.0273Z" fill="#151A22"/>
<path opacity="0.7" d="M18.9514 9.99789L11.5701 6.80664L10.0195 13.5164L18.9514 9.99789Z" fill="#151A22"/>
<path opacity="0.7" d="M17.0807 23.7537L9.05859 18.002L9.25264 25.7959L17.0807 23.7537Z" fill="#23262E"/>
<path opacity="0.7" d="M27.3001 17.4507L21.8335 11.8809L20.3906 22.5916L27.3001 17.4507Z" fill="#23262E"/>
<path opacity="0.7" d="M18.9628 25.0059L20.1535 27.2931L12.1973 26.7815L18.9628 25.0059Z" fill="#43444B"/>
<path opacity="0.7" d="M26.2329 19.9766L20.3105 24.4065L21.4873 26.7156L26.2329 19.9766Z" fill="#34363D"/>
<path opacity="0.7" d="M23.4315 7.57227L26.5628 14.3134L22.2812 9.94334L23.4315 7.57227Z" fill="#34363D"/>
<path opacity="0.7" d="M21.9989 6.4373L20.6823 8.85465L14.4805 6.13086L21.9989 6.4373Z" fill="#36383F"/>
<path opacity="0.7" d="M9.58065 7.53516L7.83534 14.961L4.31445 14.2122L9.58065 7.53516Z" fill="#3B3C43"/>
<path opacity="0.7" d="M7.62183 16.2697L7.77545 24.2499L4.08398 15.5176L7.62183 16.2697Z" fill="#45464D"/>
<defs>
<linearGradient id="paint0_linear_6211_20783" x1="8.15626" y1="17.1739" x2="21.3746" y2="17.1739" gradientUnits="userSpaceOnUse">
<stop stop-color="#A3A2A5"/>
<stop offset="0.2705" stop-color="#9F9EA0"/>
<stop offset="0.5607" stop-color="#929194"/>
<stop offset="0.8592" stop-color="#7C7C80"/>
<stop offset="1" stop-color="#707073"/>
</linearGradient>
<linearGradient id="paint1_linear_6211_20783" x1="8.0689" y1="15.6203" x2="17.4948" y2="6.31937" gradientUnits="userSpaceOnUse">
<stop stop-color="#969598"/>
<stop offset="0.3396" stop-color="#908F92"/>
<stop offset="0.7917" stop-color="#7F7F82"/>
<stop offset="1" stop-color="#757578"/>
</linearGradient>
<linearGradient id="paint2_linear_6211_20783" x1="8.79277" y1="15.4885" x2="13.8391" y2="25.4592" gradientUnits="userSpaceOnUse">
<stop stop-color="#9E9EA0"/>
<stop offset="0.2759" stop-color="#9B9B9D"/>
<stop offset="0.494" stop-color="#919194"/>
<stop offset="0.6923" stop-color="#808083"/>
<stop offset="0.8777" stop-color="#69696D"/>
<stop offset="1" stop-color="#55565A"/>
</linearGradient>
</defs>
</svg>
