<svg width="64" height="64" viewBox="0 0 64 64" fill="none" xmlns="http://www.w3.org/2000/svg">
<path d="M64 32C64 49.6731 49.6731 64 32 64C14.3269 64 0 49.6731 0 32C0 14.3269 14.3269 0 32 0C49.6731 0 64 14.3269 64 32Z" fill="#8B52F6"/>
<path d="M61.4766 32.0573C61.4766 15.8094 48.3051 2.63793 32.0573 2.63793C15.8094 2.63793 2.63793 15.8094 2.63793 32.0573C2.63793 48.3051 15.8094 61.4766 32.0573 61.4766V62.0501C15.4927 62.0501 2.06445 48.6219 2.06445 32.0573C2.06445 15.4927 15.4927 2.06445 32.0573 2.06445C48.6219 2.06445 62.0501 15.4927 62.0501 32.0573C62.0501 48.6219 48.6219 62.0501 32.0573 62.0501V61.4766C48.3051 61.4766 61.4766 48.3051 61.4766 32.0573Z" fill="black"/>
<path d="M8.18853 22.6209C8.30321 22.5827 8.41199 22.6653 8.41199 22.6653C9.59868 23.4503 13.7359 25.569 20.6684 27.6573C24.199 28.7208 25.9834 30.6395 26.7567 32.6314C27.5123 34.5774 27.2905 36.5622 26.8445 37.8275C26.8368 37.852 26.8284 37.8763 26.8188 37.9L26.3908 37.7346C26.3968 37.7183 26.4024 37.7017 26.4083 37.685C26.4687 37.4786 26.4226 37.0962 25.8412 36.6805C25.2104 36.2297 23.9835 35.7754 21.7487 35.5576C17.1932 35.1134 13.7898 32.9059 12.6413 31.8397C12.6377 31.8358 12.3612 31.5371 12.4895 31.395C12.6185 31.2523 15.2086 31.7109 15.2184 31.7127C14.2949 31.4264 13.4833 31.111 12.778 30.7854C10.8472 29.8939 9.69813 28.9225 9.22942 28.2731C9.22891 28.2725 9.10627 28.126 9.22068 28.0115C9.33537 27.8968 16.0511 29.1263 16.0511 29.1263C13.656 28.2966 11.9242 27.3932 10.6986 26.5176C8.72615 25.1083 8.02681 23.7404 8.05625 22.849C8.05645 22.8469 8.07448 22.6589 8.18853 22.6209ZM55.6819 22.6653C55.6819 22.6653 55.7907 22.5826 55.9053 22.6209C56.0195 22.6589 56.0375 22.8471 56.0376 22.849C56.0671 23.7404 55.3677 25.1083 53.3953 26.5176C52.1697 27.3932 50.4378 28.2966 48.0428 29.1263C48.0532 29.1244 54.7584 27.897 54.8731 28.0115C54.9878 28.1262 54.8644 28.2731 54.8644 28.2731C54.3956 28.9225 53.2466 29.8939 51.3159 30.7854C50.6105 31.1111 49.7989 31.4264 48.8753 31.7127C48.8753 31.7127 51.475 31.252 51.6043 31.395C51.7333 31.5378 51.4534 31.8388 51.4525 31.8397C50.304 32.9059 46.9006 35.1134 42.3451 35.5576C40.1103 35.7754 38.8834 36.2297 38.2527 36.6805C37.6712 37.0962 37.6252 37.4786 37.6856 37.685C37.6915 37.7016 37.697 37.7183 37.703 37.7346L37.2751 37.9C37.2654 37.8763 37.2571 37.852 37.2493 37.8275C36.8034 36.5622 36.5815 34.5774 37.337 32.6314C38.1104 30.6395 39.8947 28.7208 43.4254 27.6573C50.3579 25.569 54.4952 23.4503 55.6819 22.6653ZM7.7871 19.9829C7.95909 19.9255 21.5876 25.4657 21.5876 25.4657C23.0336 26.0725 25.0717 27.378 26.5016 29.3341C27.9379 31.2991 28.7599 33.9227 27.7474 37.1296L27.3073 37.001C27.8115 35.1257 27.4902 30.5618 21.9333 27.6426C19.9092 27.1253 16.7912 26.1452 13.9739 24.8737C12.5592 24.2351 11.214 23.5202 10.1194 22.75C9.0295 21.983 8.16504 21.1453 7.74297 20.253C7.74297 20.253 7.61511 20.0402 7.7871 19.9829ZM56.3068 19.9829C56.4778 20.0399 56.3522 20.2508 56.3509 20.253C55.9288 21.1453 55.0644 21.983 53.9745 22.75C52.8799 23.5202 51.5347 24.2351 50.12 24.8737C47.3027 26.1452 44.1846 27.1253 42.1605 27.6426C36.6036 30.5618 36.2824 35.1257 36.7866 37.001L36.3463 37.1296C35.3339 33.9227 36.156 31.2991 37.5923 29.3341C39.0222 27.378 41.0603 26.0725 42.5063 25.4657C42.5063 25.4657 56.1348 19.9255 56.3068 19.9829ZM8.57003 23.3031C8.75156 24.0042 9.40593 25.0301 10.9653 26.1443C12.8811 27.513 16.0813 29.21 21.348 30.3343L10.0297 28.4851C10.5905 29.0248 11.5491 29.7126 12.9702 30.3688C14.6089 31.1255 18.2044 32.2177 21.1383 32.6085L13.5359 31.9854C14.9861 33.0798 17.9712 34.7284 21.7933 35.101C24.0578 35.3218 25.3802 35.787 26.108 36.3072C26.3428 36.4751 26.5187 36.6523 26.6436 36.8302C26.876 35.6954 26.8862 34.2324 26.3291 32.7975C25.6135 30.9542 23.9498 29.1249 20.5361 28.0965C14.213 26.1919 10.1811 24.2548 8.57003 23.3031ZM55.5239 23.3031C53.9128 24.2548 49.8809 26.1919 43.5578 28.0965C40.1441 29.1249 38.4803 30.9542 37.7647 32.7975C37.2076 34.2324 37.2178 35.6954 37.4502 36.8302C37.5751 36.6523 37.7511 36.4751 37.9859 36.3072C38.7137 35.787 40.036 35.3218 42.3005 35.101C46.1226 34.7284 49.1078 33.0798 50.558 31.9854L42.9555 32.6085C45.8894 32.2177 49.4848 31.1255 51.1235 30.3688C52.5447 29.7126 53.5033 29.0248 54.0641 28.4851L42.7457 30.3343C48.0125 29.21 51.2127 27.5131 53.1285 26.1443C54.6879 25.0301 55.3423 24.0042 55.5239 23.3031ZM8.49879 20.6262C8.92685 21.2189 9.57469 21.8059 10.3833 22.3749C11.4457 23.1224 12.7628 23.8237 14.1628 24.4555C16.9625 25.7191 20.0691 26.6943 22.0733 27.2049L22.0991 27.2116L22.123 27.2239C25.6867 29.0882 27.206 31.6261 27.7175 33.7835C27.6005 32.1612 26.9796 30.7655 26.1313 29.6049C24.8036 27.7887 22.9189 26.5501 21.5417 25.9453L21.4101 25.8888L8.49879 20.6262ZM42.6838 25.8888L42.5521 25.9453C41.1749 26.5501 39.2902 27.7887 37.9626 29.6049C37.1143 30.7655 36.4933 32.1612 36.3764 33.7835C36.8879 31.6261 38.4072 29.0882 41.9709 27.2239L41.9946 27.2116L42.0206 27.2049C44.0248 26.6943 47.1314 25.7191 49.9311 24.4555C51.3311 23.8237 52.6481 23.1224 53.7105 22.3749C54.5191 21.8059 55.1669 21.2189 55.595 20.6262L42.6838 25.8888Z" fill="white"/>
<path fill-rule="evenodd" clip-rule="evenodd" d="M33.0199 32.3038L43.5871 47.5885V49.1963H20.6328V47.591L30.9554 32.3038L20.6328 17.0166V15.3574H43.5871V17.019L33.0199 32.3038Z" fill="white"/>
<path fill-rule="evenodd" clip-rule="evenodd" d="M19.9551 14.6816H44.2598V17.2292L33.8383 32.3032L44.2598 47.3773V49.871H19.9551V47.3838L30.1382 32.3032L19.9551 17.2227V14.6816ZM21.3056 16.0321V16.8094L31.7677 32.3032L21.3056 47.7971V48.5205H42.9094V47.7987L32.1965 32.3032L42.9094 16.8078V16.0321H21.3056Z" fill="#511778"/>
<path d="M31.7933 36.0405C31.8133 36.0756 31.8353 36.1094 31.8588 36.1416C31.8971 36.1938 31.9467 36.2457 31.991 36.2457C32.0707 36.2456 32.1782 36.0775 32.1977 36.043C32.152 36.119 32.121 36.2052 32.1073 36.2955C32.1067 36.3124 32.1108 36.329 32.1188 36.3433C32.1637 36.4214 32.3768 36.4275 32.378 36.4275C32.3769 36.4276 32.1637 36.4345 32.118 36.5117C32.1097 36.5271 32.1058 36.5451 32.1073 36.563C32.1209 36.6532 32.1516 36.7391 32.197 36.8152C32.1782 36.7833 32.0699 36.6127 31.9903 36.6125C31.9467 36.6125 31.8969 36.664 31.8578 36.7161C31.8344 36.7482 31.8129 36.7819 31.7933 36.817C31.8031 36.7943 31.8924 36.5915 31.8488 36.5124C31.8052 36.4334 31.6016 36.4283 31.6016 36.4283C31.6016 36.4283 31.8089 36.4141 31.8488 36.3443C31.8887 36.2745 31.8038 36.0633 31.7933 36.0405ZM31.7933 34.2289C31.8133 34.2639 31.8353 34.2976 31.8588 34.3298C31.8971 34.3819 31.9467 34.4341 31.991 34.4341C32.0707 34.434 32.1782 34.2659 32.1977 34.2314C32.152 34.3074 32.121 34.3933 32.1073 34.4837C32.1067 34.5006 32.1108 34.5174 32.1188 34.5317C32.1638 34.6096 32.3765 34.6156 32.378 34.6156C32.3775 34.6157 32.1639 34.6226 32.118 34.6998C32.1097 34.7152 32.1058 34.7332 32.1073 34.7511C32.1209 34.8413 32.1516 34.9275 32.197 35.0036C32.1782 34.9717 32.0699 34.801 31.9903 34.8009C31.9467 34.8009 31.8969 34.8521 31.8578 34.9043C31.8344 34.9363 31.8129 34.9701 31.7933 35.0051C31.8033 34.982 31.8923 34.7798 31.8488 34.7008C31.8052 34.6217 31.6016 34.6166 31.6016 34.6166C31.6016 34.6166 31.809 34.6023 31.8488 34.5325C31.8886 34.4627 31.804 34.252 31.7933 34.2289ZM31.7933 33C31.8133 33.035 31.8353 33.0687 31.8588 33.1009C31.8971 33.153 31.9467 33.2052 31.991 33.2052C32.0707 33.2051 32.1782 33.037 32.1977 33.0025C32.152 33.0785 32.121 33.1647 32.1073 33.255C32.1067 33.2718 32.1108 33.2885 32.1188 33.3028C32.1638 33.3808 32.3769 33.3869 32.378 33.387C32.3767 33.387 32.1637 33.394 32.118 33.4711C32.1097 33.4865 32.1058 33.5045 32.1073 33.5224C32.1209 33.6126 32.1516 33.6986 32.197 33.7747C32.1782 33.7428 32.0699 33.5721 31.9903 33.572C31.9467 33.572 31.8969 33.6232 31.8578 33.6753C31.8344 33.7075 31.813 33.7413 31.7933 33.7764C31.8031 33.7537 31.8924 33.551 31.8488 33.4719C31.8052 33.3929 31.6016 33.3877 31.6016 33.3877C31.6016 33.3877 31.809 33.3734 31.8488 33.3036C31.8886 33.2337 31.8038 33.0227 31.7933 33Z" fill="#511778"/>
<path fill-rule="evenodd" clip-rule="evenodd" d="M33.7803 29.6387L32.4557 31.5503L31.971 32.3702L31.5259 31.5503L30.2363 29.6387L32.0553 30.2277L33.7803 29.6387Z" fill="#511778"/>
<path fill-rule="evenodd" clip-rule="evenodd" d="M32.0704 39.6733C34.0111 39.7095 35.9638 40.4417 37.9286 41.8699L42.1427 47.8317H21.998L26.2643 41.6521C28.1943 40.2966 30.1296 39.6371 32.0704 39.6733Z" fill="#511778"/>
</svg>
